<?xml version="1.0" encoding="UTF-8" standalone="no"?>
<!DOCTYPE svg PUBLIC "-//W3C//DTD SVG 1.1//EN"
 "http://www.w3.org/Graphics/SVG/1.1/DTD/svg11.dtd">
<!-- Generated by graphviz version 2.43.0 (0)
 -->
<!-- Title: %3 Pages: 1 -->
<svg width="256pt" height="569pt"
 viewBox="0.00 0.00 256.00 569.00" xmlns="http://www.w3.org/2000/svg" xmlns:xlink="http://www.w3.org/1999/xlink">
<g id="graph0" class="graph" transform="scale(1 1) rotate(0) translate(4 565)">
<title>%3</title>
<polygon fill="white" stroke="transparent" points="-4,4 -4,-565 252,-565 252,4 -4,4"/>
<!-- torch_input_0 -->
<g id="node1" class="node">
<title>torch_input_0</title>
<polygon fill="#dcdcdc" stroke="black" points="214,-561 128,-561 128,-483 214,-483 214,-561"/>
<polygon fill="none" stroke="black" points="129,-534 129,-560 213,-560 213,-534 129,-534"/>
<text text-anchor="start" x="146" y="-550" font-family="Linux libertine" font-size="10.00">torch.rand</text>
<text text-anchor="start" x="131" y="-539" font-family="Linux libertine" font-size="10.00">duration: 2.0 ms</text>
<polygon fill="none" stroke="black" points="129,-484 129,-533 213,-533 213,-484 129,-484"/>
<text text-anchor="start" x="149.5" y="-523" font-family="Linux libertine" font-size="10.00">Output 0</text>
<text text-anchor="start" x="152" y="-512" font-family="Linux libertine" font-size="10.00">(32, 32)</text>
<text text-anchor="start" x="140" y="-501" font-family="Linux libertine" font-size="10.00">torch.float32</text>
</g>
<!-- ttnn.from_torch_5 -->
<g id="node2" class="node">
<title>ttnn.from_torch_5</title>
<g id="a_node2"><a xlink:href="/operation_buffer_report/1" xlink:title="&lt;TABLE&gt;">
<polygon fill="#dcdcdc" stroke="black" points="248,-436 0,-436 0,-325 248,-325 248,-436"/>
<polygon fill="none" stroke="black" points="1,-325.5 1,-434.5 93,-434.5 93,-325.5 1,-325.5"/>
<text text-anchor="start" x="3" y="-377.5" font-family="Linux libertine" font-size="10.00">1: ttnn.from_torch</text>
<polygon fill="none" stroke="black" points="94,-385.5 94,-434.5 247,-434.5 247,-385.5 94,-385.5"/>
<text text-anchor="start" x="153.5" y="-424.5" font-family="Linux libertine" font-size="10.00">Input 0</text>
<text text-anchor="start" x="151.5" y="-413.5" font-family="Linux libertine" font-size="10.00">(32, 32)</text>
<text text-anchor="start" x="139.5" y="-402.5" font-family="Linux libertine" font-size="10.00">torch.float32</text>
<polygon fill="none" stroke="black" points="94,-325.5 94,-384.5 247,-384.5 247,-325.5 94,-325.5"/>
<text text-anchor="start" x="149" y="-374.5" font-family="Linux libertine" font-size="10.00">Output 0</text>
<text text-anchor="start" x="121.5" y="-363.5" font-family="Linux libertine" font-size="10.00">ttnn.Shape([32, 32])</text>
<text text-anchor="start" x="121" y="-352.5" font-family="Linux libertine" font-size="10.00">DataType.BFLOAT16</text>
<text text-anchor="start" x="140.5" y="-341.5" font-family="Linux libertine" font-size="10.00">Layout: TILE</text>
<text text-anchor="start" x="96" y="-330.5" font-family="Linux libertine" font-size="10.00">Memory: DRAM, INTERLEAVED</text>
</a>
</g>
</g>
<!-- torch_input_0&#45;&gt;ttnn.from_torch_5 -->
<g id="edge1" class="edge">
<title>torch_input_0:#0&#45;&gt;ttnn.from_torch_5:$0</title>
<path fill="none" stroke="black" d="M171,-483C171,-465.68 171,-459.02 171,-445.53"/>
<polygon fill="black" stroke="black" points="174.5,-445.5 171,-435.5 167.5,-445.5 174.5,-445.5"/>
<text text-anchor="middle" x="186.5" y="-457" font-family="Times,serif" font-size="10.00">0 &#45;&gt; 0</text>
</g>
<!-- ttnn.exp_8 -->
<g id="node3" class="node">
<title>ttnn.exp_8</title>
<g id="a_node3"><a xlink:href="/operation_buffer_report/2" xlink:title="&lt;TABLE&gt;">
<polygon fill="#dcdcdc" stroke="black" points="247.5,-278 34.5,-278 34.5,-157 247.5,-157 247.5,-278"/>
<polygon fill="none" stroke="black" points="36,-157.5 36,-276.5 93,-276.5 93,-157.5 36,-157.5"/>
<text text-anchor="start" x="38" y="-214.5" font-family="Linux libertine" font-size="10.00">2: ttnn.exp</text>
<polygon fill="none" stroke="black" points="94,-217.5 94,-276.5 247,-276.5 247,-217.5 94,-217.5"/>
<text text-anchor="start" x="153.5" y="-266.5" font-family="Linux libertine" font-size="10.00">Input 0</text>
<text text-anchor="start" x="121.5" y="-255.5" font-family="Linux libertine" font-size="10.00">ttnn.Shape([32, 32])</text>
<text text-anchor="start" x="121" y="-244.5" font-family="Linux libertine" font-size="10.00">DataType.BFLOAT16</text>
<text text-anchor="start" x="140.5" y="-233.5" font-family="Linux libertine" font-size="10.00">Layout: TILE</text>
<text text-anchor="start" x="96" y="-222.5" font-family="Linux libertine" font-size="10.00">Memory: DRAM, INTERLEAVED</text>
<polygon fill="none" stroke="black" points="94,-157.5 94,-216.5 247,-216.5 247,-157.5 94,-157.5"/>
<text text-anchor="start" x="149" y="-206.5" font-family="Linux libertine" font-size="10.00">Output 0</text>
<text text-anchor="start" x="121.5" y="-195.5" font-family="Linux libertine" font-size="10.00">ttnn.Shape([32, 32])</text>
<text text-anchor="start" x="121" y="-184.5" font-family="Linux libertine" font-size="10.00">DataType.BFLOAT16</text>
<text text-anchor="start" x="140.5" y="-173.5" font-family="Linux libertine" font-size="10.00">Layout: TILE</text>
<text text-anchor="start" x="96" y="-162.5" font-family="Linux libertine" font-size="10.00">Memory: DRAM, INTERLEAVED</text>
</a>
</g>
</g>
<!-- ttnn.from_torch_5&#45;&gt;ttnn.exp_8 -->
<g id="edge2" class="edge">
<title>ttnn.from_torch_5:#0&#45;&gt;ttnn.exp_8:$0</title>
<path fill="none" stroke="black" d="M171,-325C171,-307.68 171,-301.02 171,-287.53"/>
<polygon fill="black" stroke="black" points="174.5,-287.5 171,-277.5 167.5,-287.5 174.5,-287.5"/>
<text text-anchor="middle" x="186.5" y="-299" font-family="Times,serif" font-size="10.00">0 &#45;&gt; 0</text>
</g>
<!-- ttnn.to_torch_10 -->
<g id="node4" class="node">
<title>ttnn.to_torch_10</title>
<g id="a_node4"><a xlink:href="/operation_buffer_report/3" xlink:title="&lt;TABLE&gt;">
<polygon fill="#dcdcdc" stroke="black" points="247.5,-110 12.5,-110 12.5,0 247.5,0 247.5,-110"/>
<polygon fill="none" stroke="black" points="14,-1 14,-109 93,-109 93,-1 14,-1"/>
<text text-anchor="start" x="16" y="-52.5" font-family="Linux libertine" font-size="10.00">3: ttnn.to_torch</text>
<polygon fill="none" stroke="black" points="94,-50 94,-109 247,-109 247,-50 94,-50"/>
<text text-anchor="start" x="153.5" y="-99" font-family="Linux libertine" font-size="10.00">Input 0</text>
<text text-anchor="start" x="121.5" y="-88" font-family="Linux libertine" font-size="10.00">ttnn.Shape([32, 32])</text>
<text text-anchor="start" x="121" y="-77" font-family="Linux libertine" font-size="10.00">DataType.BFLOAT16</text>
<text text-anchor="start" x="140.5" y="-66" font-family="Linux libertine" font-size="10.00">Layout: TILE</text>
<text text-anchor="start" x="96" y="-55" font-family="Linux libertine" font-size="10.00">Memory: DRAM, INTERLEAVED</text>
<polygon fill="none" stroke="black" points="94,-1 94,-49 247,-49 247,-1 94,-1"/>
<text text-anchor="start" x="149" y="-39" font-family="Linux libertine" font-size="10.00">Output 0</text>
<text text-anchor="start" x="123.5" y="-28" font-family="Linux libertine" font-size="10.00">torch.Size([32, 32])</text>
<text text-anchor="start" x="136.5" y="-17" font-family="Linux libertine" font-size="10.00">torch.bfloat16</text>
<text text-anchor="start" x="139.5" y="-6" font-family="Linux libertine" font-size="10.00">torch.strided</text>
</a>
</g>
</g>
<!-- ttnn.exp_8&#45;&gt;ttnn.to_torch_10 -->
<g id="edge3" class="edge">
<title>ttnn.exp_8:#0&#45;&gt;ttnn.to_torch_10:$0</title>
<path fill="none" stroke="black" d="M171,-157C171,-140.03 171,-133.4 171,-120.3"/>
<polygon fill="black" stroke="black" points="174.5,-120 171,-110 167.5,-120 174.5,-120"/>
<text text-anchor="middle" x="186.5" y="-131" font-family="Times,serif" font-size="10.00">0 &#45;&gt; 0</text>
</g>
</g>
</svg>
